<svg id="Layer_1" data-name="Layer 1" xmlns="http://www.w3.org/2000/svg" viewBox="0 0 1920 1080"><defs><style>.cls-1{fill:#fff;}</style></defs><path class="cls-1" d="M1094,635.93H826v-188h268ZM946.78,477.06l8.7-3.54a54.32,54.32,0,0,0-13.78,3.26c-5.38,2-5.76,4.12-2.18,8.66l7.41-8.52c-2.23,5.18-7.41,9.31-6.06,16-6.49-8.55-6-19.23-8.39-29.42l-4,.79,8.67,31.34-1.47.4c-.83-1.92-1.45-5.36-2.54-5.52-6.7-1-13.69-3.33-20,1.44,2.28-3.38,9.87-5.68,14.15-4.43a51.32,51.32,0,0,0,5.58,1c-.16-7.6-1.25-8.72-7.19-6.37-6.3,2.49-12.71,5.19-18.29,9-29.14,19.7-38,65-20.39,97.26,8.44,15.52,20.89,26.18,36.77,31,31,9.4,60.52,5,86.88-15.11,22.44-17.17,33.89-39.33,30.6-67.9-3.81-33-31.27-69-74.53-65.5-7.79.63-13.91,6.22-14.86,13.23l10.24-1.2L950,488.43c-3.6-4.74,2-8,3.29-12.48Z"/><path d="M962.06,481l-10.24,1.19c.95-7,7.21-11.63,14.86-13.22,52.15-10.87,77.53,30.82,74.9,62.27-.2,2.42-.36,4.84-.4,7.27-.23,12.62-2.49,30.74-24.9,47.17a39.89,39.89,0,0,1-11.14,5.68c-26,8.57-37.89,22.29-76,16.69,0,0-27.81-5.24-43.53-30.14-23.82-32.38-14.59-74.42,17.86-91.54,5.57-3.77,15.91-3.61,22.21-6.1,5.94-2.35,7-1.23,7.19,6.37a51.32,51.32,0,0,1-5.58-1c-4.28-1.25-11.87,1.05-14.14,4.43l-1.05.48L905.13,496l13.71-1.49c-4.94,4.87-10,8-12.19,12.5-2.51,5.14,2.29,9.73,4.54,14.37a11.61,11.61,0,0,0,.67-5.09c-.21-3.31,1.31-5.15,4.39-6.29,4-1.49,7.93-3.37,11.39-4.87l12.58,13.36c-.4-4,.39-5,0-9,2.64-2.32,4.09-5.49,6.73-7.81.87.66,2.1-.13,2.55-.35,3.93-1.87,5.41.55,6.79,3.47.59,1.24,1.42,2.36,2.11,3.56l1.43-.34c.27-3.92.48-7.83.84-11.74a12.17,12.17,0,0,1,1-4.21c2.08-4.23,5.59-5.68,10.23-5.12,1.55.18,3.21-.52,4.83-.82l.13-1.87-14.94-3.33Z"/><path d="M947,499.44l-7.92,7c-.58,1.77-1.17,3.54-1.93,5.84-3.17-4-9.22-5.75-6.68-12.68a22.49,22.49,0,0,0-3.83,2.71c-2.15,1.65-4.13,4-6.57,4.67-4.61,1.25-8.9,2.33-10.45,7.75-5.23-11.67,6.13-13,12.37-19.21-3.08-1-5.39-1.65-7.54-2.61-.94-.42-1.57-1.54-2.34-2.34l1.05-.48c6.32-4.77,13.31-2.41,20-1.44,1.09.16,1.71,3.6,2.54,5.52l1.47-.4c-2.85-10.31-11.75-27.06-14.46-44.92.78-.15,7.68,3.69,9.41,3.35-2.24,4.09,2.3,30.31,8.79,38.86-1.35-6.73,3.83-10.86,6.06-16l-.16.15,6.49-1.11c-1.26,4.49-6.89,7.74-3.29,12.48L962.06,481l-.16-.12,7.75,3.91L954.4,493c6.57,3.5,6.58,3.53,3.8,11.68C956.08,498.62,951.65,498.68,947,499.44Z"/><path d="M946.93,475l-7.41,8.53c-3.58-4.54-3.2-6.67,2.18-8.66a54.32,54.32,0,0,1,13.78-3.26l-8.7,3.54Z"/><path class="cls-1" d="M912.06,490.54c.77.8,1.4,1.92,2.34,2.34,2.15,1,4.46,1.57,7.54,2.61-6.24,6.21-17.6,7.54-12.37,19.21,1.55-5.42,5.84-6.5,10.45-7.75,2.44-.65,4.42-3,6.57-4.67a22.49,22.49,0,0,1,3.83-2.71c-2.54,6.93,3.51,8.64,6.68,12.68.76-2.3,1.35-4.07,1.93-5.84q.6,6,1.19,12.11l-12.58-13.36c-3.46,1.5-7.35,3.38-11.39,4.87-3.08,1.14-4.6,3-4.39,6.29a11.61,11.61,0,0,1-.67,5.09c-2.25-4.64-7.05-9.23-4.54-14.37,2.21-4.51,7.25-7.63,12.19-12.5L905.13,496Z"/><path class="cls-1" d="M947,499.44c4.7-.76,9.13-.82,11.25,5.25,2.78-8.15,2.77-8.18-3.8-11.68l15.25-8.19-7.75-3.91,14.94,3.33-.13,1.87c-1.62.3-3.28,1-4.83.82-4.64-.56-8.15.89-10.23,5.12a12.17,12.17,0,0,0-1,4.21c-.36,3.91-.57,7.82-.84,11.74l-1.59.05a36.14,36.14,0,0,1-2-3.27c-1.38-2.92-2.86-5.34-6.79-3.47C949.05,501.53,947.82,500.1,947,499.44Z"/></svg>